<svg
  width="620"
  height="158"
  viewBox="0 0 620 158"
  fill="none"
  xmlns="http://www.w3.org/2000/svg"
>
  <path
    d="M229.375 44.1309L208.775 113.631H195.875L181.275 61.0309L165.775 113.631L152.975 113.731L133.275 44.1309H145.375L159.775 100.731L175.375 44.1309H188.175L202.675 100.431L217.175 44.1309H229.375ZM244.577 51.2309C242.511 51.2309 240.777 50.5309 239.377 49.1309C237.977 47.7309 237.277 45.9976 237.277 43.9309C237.277 41.8642 237.977 40.1309 239.377 38.7309C240.777 37.3309 242.511 36.6309 244.577 36.6309C246.577 36.6309 248.277 37.3309 249.677 38.7309C251.077 40.1309 251.777 41.8642 251.777 43.9309C251.777 45.9976 251.077 47.7309 249.677 49.1309C248.277 50.5309 246.577 51.2309 244.577 51.2309ZM250.177 58.5309V113.631H238.777V58.5309H250.177ZM292.945 57.6309C297.278 57.6309 301.145 58.5309 304.545 60.3309C308.011 62.1309 310.711 64.7976 312.645 68.3309C314.578 71.8642 315.545 76.1309 315.545 81.1309V113.631H304.245V82.8309C304.245 77.8976 303.011 74.1309 300.545 71.5309C298.078 68.8642 294.711 67.5309 290.445 67.5309C286.178 67.5309 282.778 68.8642 280.245 71.5309C277.778 74.1309 276.545 77.8976 276.545 82.8309V113.631H265.145V58.5309H276.545V64.8309C278.411 62.5642 280.778 60.7976 283.645 59.5309C286.578 58.2642 289.678 57.6309 292.945 57.6309ZM357.886 57.6309C362.219 57.6309 366.086 58.5309 369.486 60.3309C372.953 62.1309 375.653 64.7976 377.586 68.3309C379.519 71.8642 380.486 76.1309 380.486 81.1309V113.631H369.186V82.8309C369.186 77.8976 367.953 74.1309 365.486 71.5309C363.019 68.8642 359.653 67.5309 355.386 67.5309C351.119 67.5309 347.719 68.8642 345.186 71.5309C342.719 74.1309 341.486 77.8976 341.486 82.8309V113.631H330.086V58.5309H341.486V64.8309C343.353 62.5642 345.719 60.7976 348.586 59.5309C351.519 58.2642 354.619 57.6309 357.886 57.6309ZM445.527 84.7309C445.527 86.7976 445.394 88.6642 445.127 90.3309H403.027C403.361 94.7309 404.994 98.2642 407.927 100.931C410.861 103.598 414.461 104.931 418.727 104.931C424.861 104.931 429.194 102.364 431.727 97.2309H444.027C442.361 102.298 439.327 106.464 434.927 109.731C430.594 112.931 425.194 114.531 418.727 114.531C413.461 114.531 408.727 113.364 404.527 111.031C400.394 108.631 397.127 105.298 394.727 101.031C392.394 96.6976 391.227 91.6976 391.227 86.0309C391.227 80.3642 392.361 75.3976 394.627 71.1309C396.961 66.7976 400.194 63.4642 404.327 61.1309C408.527 58.7976 413.327 57.6309 418.727 57.6309C423.927 57.6309 428.561 58.7642 432.627 61.0309C436.694 63.2976 439.861 66.4976 442.127 70.6309C444.394 74.6976 445.527 79.3976 445.527 84.7309ZM433.627 81.1309C433.561 76.9309 432.061 73.5642 429.127 71.0309C426.194 68.4976 422.561 67.2309 418.227 67.2309C414.294 67.2309 410.927 68.4976 408.127 71.0309C405.327 73.4976 403.661 76.8642 403.127 81.1309H433.627ZM468.146 66.5309C469.813 63.7309 472.013 61.5642 474.746 60.0309C477.546 58.4309 480.846 57.6309 484.646 57.6309V69.4309H481.746C477.279 69.4309 473.879 70.5642 471.546 72.8309C469.279 75.0976 468.146 79.0309 468.146 84.6309V113.631H456.746V58.5309H468.146V66.5309Z"
    fill="url(#paint0_linear_24_129)"
    fill-opacity="0.8"
  />
  <defs>
    <linearGradient
      id="paint0_linear_24_129"
      x1="43"
      y1="77.6264"
      x2="576"
      y2="77.6264"
      gradientUnits="userSpaceOnUse"
    >
      <stop stop-opacity="0.18" />
      <stop offset="0.578125" stop-opacity="0.1" />
      <stop offset="1" stop-opacity="0" />
    </linearGradient>
  </defs>
</svg>
