<svg xmlns="http://www.w3.org/2000/svg" width="352" height="79" fill="none">
  <path fill="url('#a')" fill-opacity=".8" d="m96.375 8.13-20.6 69.501h-12.9l-14.6-52.6-15.5 52.6-12.8.1-19.7-69.6h12.1l14.4 56.6 15.6-56.6h12.8l14.5 56.3 14.5-56.3h12.2Zm15.202 7.1c-2.066 0-3.8-.7-5.2-2.1-1.4-1.4-2.1-3.132-2.1-5.2 0-2.066.7-3.8 2.1-5.2 1.4-1.4 3.134-2.1 5.2-2.1 2 0 3.7.7 5.1 2.1 1.4 1.4 2.1 3.134 2.1 5.2 0 2.068-.7 3.8-2.1 5.2-1.4 1.4-3.1 2.1-5.1 2.1Zm5.6 7.3v55.101h-11.4v-55.1h11.4Zm42.768-.9c4.333 0 8.2.9 11.6 2.7 3.466 1.8 6.166 4.468 8.1 8 1.933 3.534 2.9 7.8 2.9 12.8v32.501h-11.3v-30.8c0-4.933-1.234-8.7-3.7-11.3-2.467-2.667-5.834-4-10.1-4-4.267 0-7.667 1.333-10.2 4-2.467 2.6-3.7 6.367-3.7 11.3v30.8h-11.4v-55.1h11.4v6.3c1.866-2.267 4.233-4.033 7.1-5.3 2.933-1.267 6.033-1.9 9.3-1.9Zm64.941 0c4.333 0 8.2.9 11.6 2.7 3.467 1.8 6.167 4.468 8.1 8 1.933 3.534 2.9 7.8 2.9 12.8v32.501h-11.3v-30.8c0-4.933-1.233-8.7-3.7-11.3-2.467-2.667-5.833-4-10.1-4-4.267 0-7.667 1.333-10.2 4-2.467 2.6-3.7 6.367-3.7 11.3v30.8h-11.4v-55.1h11.4v6.3c1.867-2.267 4.233-4.033 7.1-5.3 2.933-1.267 6.033-1.9 9.3-1.9Zm87.641 27.1c0 2.068-.133 3.934-.4 5.6h-42.1c.334 4.4 1.967 7.934 4.9 10.601 2.934 2.667 6.534 4 10.8 4 6.134 0 10.467-2.567 13-7.7h12.3c-1.666 5.067-4.7 9.233-9.1 12.5-4.333 3.2-9.733 4.8-16.2 4.8-5.266 0-10-1.167-14.2-3.5-4.133-2.4-7.4-5.733-9.8-10-2.333-4.333-3.5-9.333-3.5-15s1.134-10.633 3.4-14.9c2.334-4.333 5.567-7.667 9.7-10 4.2-2.333 9-3.5 14.4-3.5 5.2 0 9.834 1.133 13.9 3.4 4.067 2.267 7.234 5.467 9.5 9.6 2.267 4.067 3.4 8.767 3.4 14.1Zm-11.9-3.6c-.066-4.2-1.566-7.566-4.5-10.1-2.933-2.532-6.566-3.8-10.9-3.8-3.933 0-7.3 1.268-10.1 3.8-2.8 2.468-4.466 5.834-5 10.1h30.5Zm34.519-14.6c1.667-2.8 3.867-4.966 6.6-6.5 2.8-1.6 6.1-2.4 9.9-2.4v11.8h-2.9c-4.467 0-7.867 1.134-10.2 3.4-2.267 2.268-3.4 6.2-3.4 11.8v29.001h-11.4v-55.1h11.4v8Z"></path>
  <defs>
    <linearGradient id="a" x1="-90" x2="443" y1="41.626" y2="41.626" gradientUnits="userSpaceOnUse">
      <stop stop-opacity=".18"></stop>
      <stop offset=".578" stop-opacity=".1"></stop>
      <stop offset="1" stop-opacity="0"></stop>
    </linearGradient>
  </defs>
</svg>