<svg xmlns="http://www.w3.org/2000/svg" width="352" height="79" fill="none"><path fill="url('#a')" fill-opacity=".8" d="m96.375 8.13-20.6 69.501h-12.9l-14.6-52.6-15.5 52.6-12.8.1-19.7-69.6h12.1l14.4 56.6 15.6-56.6h12.8l14.5 56.3 14.5-56.3zm15.202 7.1q-3.1 0-5.2-2.1t-2.1-5.2 2.1-5.2 5.2-2.1q3 0 5.1 2.1t2.1 5.2-2.1 5.2-5.1 2.1m5.6 7.3v55.101h-11.4v-55.1zm42.768-.9q6.5 0 11.6 2.7 5.199 2.701 8.1 8 2.9 5.3 2.9 12.8v32.501h-11.3v-30.8q0-7.4-3.7-11.3-3.7-4-10.1-4t-10.2 4q-3.7 3.9-3.7 11.3v30.8h-11.4v-55.1h11.4v6.3q2.8-3.4 7.1-5.3 4.4-1.9 9.3-1.9Zm64.941 0q6.5 0 11.6 2.7 5.2 2.701 8.1 8 2.9 5.3 2.9 12.8v32.501h-11.3v-30.8q0-7.4-3.7-11.3-3.7-4-10.1-4t-10.2 4q-3.7 3.9-3.7 11.3v30.8h-11.4v-55.1h11.4v6.3q2.8-3.4 7.1-5.3 4.4-1.9 9.3-1.9Zm87.641 27.1q0 3.102-.4 5.6h-42.1q.5 6.6 4.9 10.601 4.401 4 10.8 4 9.2 0 13-7.7h12.3q-2.5 7.6-9.1 12.5-6.5 4.8-16.2 4.8-7.9 0-14.2-3.5-6.2-3.6-9.8-10-3.5-6.5-3.5-15c0-8.5 1.134-10.633 3.4-14.9q3.5-6.5 9.7-10 6.3-3.5 14.4-3.5 7.8 0 13.9 3.4t9.5 9.6q3.4 6.1 3.4 14.1Zm-11.9-3.6q-.099-6.3-4.5-10.1t-10.9-3.8q-5.9.001-10.1 3.8-4.2 3.702-5 10.1zm34.519-14.6q2.5-4.2 6.6-6.5 4.2-2.4 9.9-2.4v11.8h-2.9q-6.7 0-10.2 3.4-3.4 3.401-3.4 11.8v29.001h-11.4v-55.1h11.4v8Z"/><defs><linearGradient id="a" x1="-90" x2="443" y1="41.626" y2="41.626" gradientUnits="userSpaceOnUse"><stop stop-opacity=".18"/><stop offset=".578" stop-opacity=".1"/><stop offset="1" stop-opacity="0"/></linearGradient></defs></svg>